<?xml version="1.0" standalone="no"?>
<!DOCTYPE svg PUBLIC "-//W3C//DTD SVG 20010904//EN"
 "http://www.w3.org/TR/2001/REC-SVG-20010904/DTD/svg10.dtd">
<svg version="1.0" xmlns="http://www.w3.org/2000/svg"
 width="500.000000pt" height="500.000000pt" viewBox="0 0 500.000000 500.000000"
 preserveAspectRatio="xMidYMid meet">

<g transform="translate(0.000000,500.000000) scale(0.100000,-0.100000)"
fill="#000000" stroke="none">
<path d="M2526 3831 c-15 -24 -145 -355 -142 -359 3 -2 12 3 21 12 9 9 14 16
10 16 -3 0 2 11 11 25 9 14 13 25 9 25 -4 0 -2 6 4 13 6 8 8 17 4 20 -3 4 0 7
7 7 7 0 10 3 7 7 -4 3 0 17 9 30 8 14 17 32 19 42 2 9 11 35 21 57 9 21 16 42
16 47 -1 4 2 7 7 7 20 0 21 -20 4 -52 -9 -18 -16 -36 -15 -40 1 -5 -3 -8 -10
-8 -6 0 -8 -3 -5 -6 3 -4 1 -16 -5 -28 -7 -11 -13 -30 -15 -41 -2 -11 -8 -22
-13 -23 -6 -2 -8 -7 -5 -12 3 -5 -1 -15 -10 -23 -8 -8 -16 -26 -19 -41 -2 -14
-8 -31 -11 -37 -5 -7 1 -9 16 -7 20 2 38 31 103 157 l79 155 -23 18 c-27 22
-40 23 -40 2 0 -9 -6 -14 -12 -11 -14 5 -14 11 -3 40 7 17 -9 25 -19 8z"/>
<path d="M2608 3811 l33 -28 -23 -49 c-13 -27 -26 -50 -30 -52 -5 -2 -8 -10
-8 -18 0 -15 -20 -55 -32 -64 -3 -3 -8 -12 -10 -20 -2 -8 -9 -21 -16 -28 -7
-8 -10 -18 -7 -23 4 -5 2 -9 -3 -9 -5 0 -17 -18 -27 -40 -17 -37 -17 -42 -2
-73 9 -17 18 -40 21 -49 3 -10 10 -18 16 -18 13 0 5 34 -16 67 -13 21 -7 36
73 198 l88 176 -33 30 c-18 16 -38 29 -45 29 -6 -1 3 -14 21 -29z"/>
<path d="M2338 3463 c7 -3 16 -2 19 1 4 3 -2 6 -13 5 -11 0 -14 -3 -6 -6z"/>
<path d="M2243 3414 c-25 -25 -43 -48 -40 -50 8 -9 34 8 46 29 7 12 26 32 44
45 25 17 28 22 13 22 -11 0 -39 -21 -63 -46z"/>
<path d="M2309 3431 l-24 -19 27 5 c15 3 29 11 32 19 8 20 -8 17 -35 -5z"/>
<path d="M2415 3426 c47 -47 50 -151 7 -200 -16 -18 -16 -18 5 -7 33 17 47 49
49 109 2 47 -2 58 -28 88 -17 19 -36 34 -44 34 -8 0 -4 -9 11 -24z"/>
<path d="M2370 3405 c7 -8 9 -24 5 -37 -7 -21 -6 -22 10 -7 20 20 12 59 -12
59 -12 0 -13 -3 -3 -15z"/>
<path d="M2263 3368 c-11 -18 -19 -47 -18 -64 2 -39 24 -94 37 -94 6 0 7 7 2
18 -4 9 -9 38 -12 65 -4 44 -2 47 20 47 21 1 21 2 5 11 -12 7 -16 17 -12 30
10 29 -1 23 -22 -13z"/>
<path d="M2317 3385 c-7 -16 8 -29 23 -20 15 9 12 35 -4 35 -8 0 -16 -7 -19
-15z"/>
<path d="M2200 3309 c0 -42 25 -109 41 -109 5 0 2 14 -6 31 -10 19 -15 47 -12
75 3 32 0 44 -10 44 -9 0 -13 -13 -13 -41z"/>
<path d="M1188 3306 c65 -33 129 -101 165 -175 30 -62 32 -71 32 -181 0 -114
-1 -117 -38 -192 -39 -79 -97 -142 -167 -179 -19 -10 -31 -18 -27 -19 17 -1
90 43 127 76 93 85 135 195 128 339 -6 118 -39 194 -112 264 -47 44 -122 92
-143 91 -4 -1 12 -11 35 -24z"/>
<path d="M2506 3314 c-3 -9 -6 -25 -6 -37 0 -11 -7 -29 -17 -39 -15 -17 -15
-18 7 -18 13 0 21 3 18 6 -4 3 0 21 8 39 16 39 18 65 5 65 -5 0 -12 -7 -15
-16z"/>
<path d="M2615 3320 c4 -6 10 -8 15 -5 5 3 11 1 15 -5 3 -5 16 -10 28 -9 19 1
18 2 -8 14 -36 17 -59 19 -50 5z"/>
<path d="M3021 3289 c-117 -67 -214 -214 -257 -389 -28 -112 -26 -365 4 -475
31 -114 84 -215 150 -287 53 -57 133 -118 156 -118 5 0 -10 13 -35 28 -109 70
-206 216 -251 378 -32 115 -32 373 0 489 46 168 144 311 256 376 28 16 47 29
41 29 -5 0 -34 -14 -64 -31z"/>
<path d="M3475 3293 c28 -14 84 -60 126 -102 134 -134 199 -305 199 -523 0
-65 4 -118 8 -118 11 0 6 231 -6 301 -21 120 -92 255 -181 343 -53 52 -163
127 -185 126 -6 -1 12 -13 39 -27z"/>
<path d="M4651 3292 c201 -128 238 -448 70 -626 -20 -21 -54 -51 -75 -67 -21
-16 -35 -29 -29 -29 26 0 125 85 160 139 54 80 66 127 61 257 -3 123 -25 186
-89 259 -33 38 -113 95 -133 95 -5 0 10 -13 35 -28z"/>
<path d="M630 2951 c0 -270 3 -350 13 -354 9 -3 11 69 9 349 -1 222 -6 354
-12 354 -6 0 -10 -129 -10 -349z"/>
<path d="M1391 3291 c-12 -8 -12 -12 -2 -25 8 -9 18 -16 23 -16 6 0 5 6 -2 15
-6 8 -9 19 -5 25 8 12 4 12 -14 1z"/>
<path d="M4074 3200 c0 -58 1 -81 3 -52 2 28 2 76 0 105 -2 28 -3 5 -3 -53z"/>
<path d="M2658 3268 c-10 -10 -16 -18 -13 -18 7 0 65 30 65 33 0 10 -38 -1
-52 -15z"/>
<path d="M1350 3262 c0 -14 40 -58 311 -342 92 -96 196 -206 232 -244 l64 -70
6 -309 c4 -282 8 -329 22 -316 2 3 2 145 -2 316 l-6 310 -34 39 c-19 21 -72
77 -117 124 -68 71 -418 441 -463 490 -9 10 -13 11 -13 2z"/>
<path d="M2675 3221 c-40 -44 -204 -215 -458 -476 l-137 -141 0 -308 c0 -202
3 -305 10 -301 6 4 10 117 10 307 l0 300 138 141 c75 78 184 191 242 252 57
60 136 142 174 181 37 40 67 76 65 80 -2 5 -22 -11 -44 -35z"/>
<path d="M1471 3181 c115 -128 545 -579 556 -585 17 -7 132 100 139 131 4 13
16 30 27 38 12 8 17 15 12 15 -5 0 22 31 60 70 37 38 72 67 75 65 8 -5 50 35
214 203 98 101 106 112 82 112 -15 0 -25 -4 -22 -8 3 -5 -29 -42 -71 -83 -41
-41 -70 -64 -64 -52 9 19 8 24 -8 33 -25 13 -42 13 -18 -1 9 -5 17 -14 17 -19
0 -8 -211 -240 -403 -444 -19 -19 -34 -37 -33 -39 3 -10 -119 118 -165 173
-83 98 -122 140 -126 136 -7 -6 -93 87 -93 100 0 6 -11 23 -25 38 -31 33 -31
40 -2 55 22 11 22 11 -3 5 -14 -3 -30 -12 -36 -20 -11 -14 -30 3 -110 96 -17
19 -37 36 -44 38 -8 2 11 -24 41 -57z m989 -134 c0 -2 -19 -21 -42 -42 l-43
-40 40 43 c36 39 45 47 45 39z"/>
<path d="M2558 3233 c7 -3 16 -2 19 1 4 3 -2 6 -13 5 -11 0 -14 -3 -6 -6z"/>
<path d="M2380 3190 c-13 -8 -13 -10 2 -10 9 0 20 5 23 10 8 13 -5 13 -25 0z"/>
<path d="M2426 3185 c-11 -8 -15 -15 -10 -15 6 0 19 7 30 15 10 8 15 14 9 14
-5 0 -19 -6 -29 -14z"/>
<path d="M2253 3169 c-2 -17 1 -18 13 -9 17 15 18 30 1 30 -7 0 -13 -9 -14
-21z"/>
<path d="M2225 3099 c-9 -17 -14 -34 -11 -37 8 -7 19 6 34 41 16 38 -4 35 -23
-4z"/>
<path d="M2302 3095 c-6 -14 -8 -25 -3 -25 8 0 23 41 17 47 -1 2 -8 -8 -14
-22z"/>
<path d="M2297 2967 l-88 -92 41 83 c22 45 36 82 31 82 -10 0 -69 -106 -98
-176 -22 -54 -144 -191 -161 -180 -6 4 -48 48 -93 99 -152 171 -242 267 -252
267 -10 0 0 -13 197 -232 78 -87 148 -158 156 -157 13 0 256 259 343 365 56
66 11 32 -76 -59z"/>
<path d="M2193 3023 c-3 -10 -21 -53 -39 -96 -19 -43 -34 -83 -34 -90 1 -21
38 36 51 78 7 22 21 57 31 77 21 43 22 48 8 48 -6 0 -13 -8 -17 -17z"/>
<path d="M1844 2990 c0 -11 6 -20 13 -20 7 0 13 9 13 20 0 11 -6 20 -13 20 -7
0 -13 -9 -13 -20z"/>
<path d="M1953 2933 c23 -26 22 -39 -5 -57 -16 -11 -18 -16 -7 -16 41 0 54 62
17 81 -22 12 -22 11 -5 -8z"/>
<path d="M1894 2926 c-8 -20 -1 -49 11 -53 6 -1 10 13 11 32 1 35 -12 47 -22
21z"/>
<path d="M4073 2870 c0 -30 2 -43 4 -27 2 15 2 39 0 55 -2 15 -4 2 -4 -28z"/>
<path d="M632 2348 c5 -236 16 -296 59 -318 27 -15 31 -12 10 9 -34 34 -42 90
-48 314 -4 133 -10 217 -16 217 -6 0 -8 -79 -5 -222z"/>
<path d="M2011 2365 c4 -110 7 -253 8 -317 1 -76 5 -118 12 -118 5 0 7 5 4 10
-4 6 -1 17 5 26 10 11 10 27 1 71 -13 66 -14 289 -1 258 6 -14 9 -3 9 40 1 42
-2 56 -9 45 -7 -10 -10 12 -10 71 0 68 3 88 15 93 24 9 17 21 -12 21 l-28 0 6
-200z"/>
<path d="M3789 2490 c-3 -8 -16 -46 -28 -85 -46 -144 -142 -273 -252 -341 -73
-45 -77 -55 -7 -17 71 38 149 112 198 186 49 75 102 210 97 246 -2 16 -5 21
-8 11z"/>
<path d="M4072 2300 c4 -208 12 -245 59 -271 21 -11 21 -11 -1 18 -33 46 -48
134 -50 293 0 79 -3 146 -6 150 -3 3 -4 -83 -2 -190z"/>
<path d="M758 2003 c7 -3 16 -2 19 1 4 3 -2 6 -13 5 -11 0 -14 -3 -6 -6z"/>
<path d="M1838 1963 c7 -3 16 -2 19 1 4 3 -2 6 -13 5 -11 0 -14 -3 -6 -6z"/>
<path d="M2078 1935 c-3 -14 -1 -25 3 -25 5 0 9 11 9 25 0 14 -2 25 -4 25 -2
0 -6 -11 -8 -25z"/>
<path d="M2323 1940 c13 -18 14 -28 5 -44 -10 -19 -10 -20 5 -7 23 19 21 48
-4 62 -21 11 -21 10 -6 -11z"/>
<path d="M1737 1932 c-23 -25 -21 -38 5 -56 32 -22 45 -20 17 3 -22 18 -22 19
-6 45 20 30 8 35 -16 8z"/>
<path d="M1787 1923 c-13 -12 -7 -41 9 -47 24 -9 31 -7 11 5 -12 7 -16 17 -12
30 7 20 3 24 -8 12z"/>
<path d="M633 1555 c0 -33 2 -45 4 -27 2 18 2 45 0 60 -2 15 -4 0 -4 -33z"/>
<path d="M1553 1500 c0 -30 2 -43 4 -27 2 15 2 39 0 55 -2 15 -4 2 -4 -28z"/>
</g>
</svg>
